<?xml version="1.0" encoding="UTF-8"?>
<svg width="149px" height="60px" viewBox="0 0 149 60" version="1.1" xmlns="http://www.w3.org/2000/svg" xmlns:xlink="http://www.w3.org/1999/xlink">
    <title>Group</title>
    <g id="Page-2" stroke="none" stroke-width="1" fill="none" fill-rule="evenodd">
        <g id="Group">
            <text id="NPJ" font-family="Arkhip" font-size="28" font-weight="normal" line-spacing="28" fill="#000000">
                <tspan x="75" y="37.512">NPJ</tspan>
            </text>
            <g id="Orange">
                <path d="M5.19685039,47.6942598 C5.19685039,47.6942598 19.0809327,27.4315442 37.8260037,28.1277759 L48.4750879,28.7370973 C48.4750879,28.7370973 57.2356109,34.3250924 56.9208507,40.8008066 C56.9208507,40.8008066 47.793187,35.8917561 39.2948528,39.1296607 C30.796614,42.3674703 24.3464632,50.0312426 24.0818891,50.2010737 C16.1083142,55.3188987 5.19685039,47.6942598 5.19685039,47.6942598" id="Fill-41" fill="#EB8B30"></path>
                <path d="M0,23.4236527 C0,23.4236527 9.01483919,9.74398077 18.7991089,9.21259843 C18.7991089,9.21259843 27.6832182,13.05485 36.6141732,12.4476243 L25.3725462,18.0180894 L9.45558836,25.2755906 C9.45558836,25.2755906 2.54775681,24.9680993 0,23.4236527" id="Fill-42" fill="#EB8B30"></path>
                <path d="M0,23.3858268 C0,23.3858268 14.0195758,11.1255869 23.6220472,10.8216148 C23.6220472,10.8216148 18.2419134,9.78226326 17.4533803,7.47123465 C16.6648473,5.16030156 14.6670774,10.0448715 14.6670774,10.0448715 L1.99776995,19.7617571 L0,23.3858268" id="Fill-43" fill="#E57A2B"></path>
                <path d="M0,23.3858268 C0,23.3858268 17.4000676,-1.05913322 49.3700787,7.96344547 C49.3700787,7.96344547 36.8964668,-4.52131213 19.7061087,1.77354127 C2.51575052,8.06839468 0,23.3858268 0,23.3858268" id="Fill-44" fill="#DF542E"></path>
                <path d="M56.9209368,40.8661417 C56.9209368,40.8661417 47.1511199,26.9967248 29.7637795,29.1484938 C29.7637795,29.1484938 39.8109612,26.438651 48.6804388,28.9217466 L56.0824564,34.1230513 L56.9291339,39.9775019 L56.9209368,40.8661417" id="Fill-45" fill="#E57A2B"></path>
                <path d="M56.8348018,40.8661417 C56.8348018,40.8661417 64.267367,27.0350047 53.2755975,18.1286946 C42.2837328,9.22228926 18.8346054,10.6892367 10.1457945,24.2059258 C10.1457945,24.2059258 2.71332443,34.998352 9.4130479,37.3035415 C9.4130479,37.3035415 11.5067591,37.9846548 16.165226,34.0553892 C20.8235977,30.1260283 33.5252362,23.5423453 46.8549975,30.5976049 C46.8549975,30.5976049 56.4160215,34.5792786 56.8348018,40.8661417" id="Fill-46" fill="#DF542E"></path>
                <path d="M5.19685039,47.7031341 C5.19685039,47.7031341 11.2712634,47.8829378 17.9135833,43.5845016 C19.3446898,42.6584035 20.8889013,41.9121091 22.5255406,41.4274248 C23.5255714,41.1312552 24.6401365,40.9003224 25.7480315,40.8661417 L24.042119,44.2851587 L8.88024164,50.0787402 L6.5866026,48.5992176 L5.56170204,47.9912556 L5.19685039,47.7031341" id="Fill-47" fill="#E57A2B"></path>
                <path d="M5.19685039,47.5316295 C5.19685039,47.5316295 9.29241513,50.255 19.951331,43.6559466 C30.6102469,37.0568932 37.9086529,38.6805326 37.9086529,38.6805326 C37.9086529,38.6805326 50.8252577,41.0373578 49.5126257,49.5218142 C48.1999937,58.0062706 32.552885,60.7296411 26.5146822,59.8392828 C20.4763838,58.9490197 11.1827199,56.4874129 5.19685039,47.5316295" id="Fill-48" fill="#DF542E"></path>
            </g>
        </g>
    </g>
</svg>